<?xml version="1.0" encoding="UTF-8"?>
<svg width="48px" height="44px" viewBox="0 0 48 44" version="1.1" xmlns="http://www.w3.org/2000/svg" xmlns:xlink="http://www.w3.org/1999/xlink">
    <!-- Generator: Sketch 64 (93537) - https://sketch.com -->
    <title>Group 57</title>
    <desc>Created with Sketch.</desc>
    <g id="Page-2" stroke="none" stroke-width="1" fill="none" fill-rule="evenodd">
        <g id="Artboard" transform="translate(-811.000000, -389.000000)">
            <g id="Group-57" transform="translate(810.000000, 386.000000)">
                <rect id="Rectangle" x="0" y="0" width="50" height="50"></rect>
                <g id="Group-56" transform="translate(2.000000, 4.000000)" fill-rule="nonzero" stroke="#050038" stroke-linecap="round" stroke-linejoin="round" stroke-width="2">
                    <g id="Group-5">
                        <path d="M3.75684117,29.7869409 C4.6904595,29.2896549 5.62407783,28.7923689 6.55769616,28.2950829" id="Path-23"></path>
                        <path d="M0.184067192,20.3502389 C1.73744371,20.3590085 3.29082023,20.367778 4.84419675,20.3765476" id="Path-26"></path>
                        <path d="M4.2855768,7.81661189 C5.59803613,8.3714159 6.91049546,8.92621991 8.22295479,9.48102392" id="Path-27"></path>
                        <path d="M17.1020199,0.310485325 C17.7773018,1.30807305 18.4525837,2.30566077 19.1278657,3.30324849" id="Path-28" transform="translate(18.114943, 1.806867) rotate(16.000000) translate(-18.114943, -1.806867) "></path>
                        <path d="M33.66643,1.62502738 C33.1766336,2.79163758 32.6868371,3.95824778 32.1970406,5.12485798" id="Path-32"></path>
                        <path d="M40.6157866,12.2630267 C41.7440907,11.8578212 42.8723947,11.4526157 44.0006988,11.0474101" id="Path-33"></path>
                        <path d="M42.9376563,19.7925679 C43.3840431,19.9062421 44.8254601,20.8279239 45.8033729,21.3040879" id="Path-34" transform="translate(44.370515, 20.548328) rotate(-29.000000) translate(-44.370515, -20.548328) "></path>
                        <path d="M42.1460116,28.2950829 C42.8875126,28.6649523 43.6290136,29.0348216 44.3705146,29.404691" id="Path-35"></path>
                    </g>
                    <g id="Group-6" transform="translate(10.000000, 8.000000)">
                        <path d="M14.1453104,10.7287938 C12.935292,11.7077197 2.55401437,18.7890778 1.37523851,19.9306976 C2.75047702,20.9096235 10.7072141,26.6852865 14.7659408,28.8976125 C17.1904813,27.0768569 26.4242256,20.6121988 28.2906207,19.1769013 C26.7844071,18.2436741 22.0693037,15.4276383 14.1453104,10.7287938 Z" id="Path-21"></path>
                        <path d="M12.7700719,4.79673707 C11.4930647,5.97144819 2.65224569,13.0197149 0.452785,14.8529067 C2.94693966,16.0543853 13.5858023,22.8771348 14.4169814,23.213546 C14.8344777,23.3825233 22.763574,16.9943072 27.7994641,12.6281445 C27.0136135,12.1060507 22.0038161,9.49558155 12.7700719,4.79673707 Z" id="Path-20" fill="#FFFFFF"></path>
                        <path d="M6.87619254,24.0421865 C6.89768064,26.2697528 6.81172823,27.462309 6.87619254,29.0347087 C7.26911783,31.2862384 11.3860305,33.2440902 15.0309271,33.2440902 C19.3515704,33.2440902 22.73679,31.0904532 22.789652,28.969265 C22.8489476,26.5899174 22.73679,23.7518643 22.7927364,23.2441324" id="Path-22"></path>
                        <path d="M13.0709053,0.00458871531 C8.94518976,2.94136651 0.693758712,8.57019063 0.0406739068,9.25161485 C0.497296068,9.98963323 12.4815174,16.548437 14.5443751,17.7231481 C17.5895461,15.7652962 26.5285964,7.44442581 27.7994641,6.38060864 C26.6902688,5.84984724 21.7807492,3.72450726 13.0709053,0.00458871531 Z" id="Path-19" fill="#FFD02F"></path>
                    </g>
                </g>
            </g>
        </g>
    </g>
</svg>