<?xml version="1.0" encoding="UTF-8"?>
<svg width="47px" height="45px" viewBox="0 0 47 45" version="1.1" xmlns="http://www.w3.org/2000/svg" xmlns:xlink="http://www.w3.org/1999/xlink">
    <!-- Generator: Sketch 63.1 (92452) - https://sketch.com -->
    <title>Group 52</title>
    <desc>Created with Sketch.</desc>
    <g id="Page-2" stroke="none" stroke-width="1" fill="none" fill-rule="evenodd">
        <g id="Artboard" transform="translate(-53.000000, -361.000000)">
            <g id="Group-52" transform="translate(51.000000, 359.000000)">
                <rect id="Rectangle-Copy-13" x="0" y="0" width="50" height="50"></rect>
                <g id="Group-50" transform="translate(3.000000, 3.000000)" stroke="#050038" stroke-width="2">
                    <g id="Group-49">
                        <path d="M3.39622642,17.5300727 C6.47374439,6.13502422 12.7790228,0.4375 22.3120616,0.4375 C31.8451004,0.4375 38.2471225,6.13502422 41.5181277,17.5300727 C41.6323222,19.6403532 41.6323222,21.0921716 41.5181277,21.8855279 C39.8770523,33.2867578 33.9775653,39.5426721 23.6318099,40.4375" id="Path-68"></path>
                        <path d="M41.6037736,13.1041667 L44,13.1041667 C44.5522847,13.1041667 45,13.5518819 45,14.1041667 L45,28.3333333 C45,28.8856181 44.5522847,29.3333333 44,29.3333333 L41.6037736,29.3333333 C39.7280895,29.3333333 38.2075472,27.812791 38.2075472,25.9371069 L38.2075472,16.5003931 C38.2075472,14.624709 39.7280895,13.1041667 41.6037736,13.1041667 Z" id="Rectangle-Copy-19" fill="#3F53D9" transform="translate(41.603774, 21.218750) scale(-1, 1) translate(-41.603774, -21.218750) "></path>
                        <path d="M3.39622642,13.1041667 L5.79245283,13.1041667 C6.34473758,13.1041667 6.79245283,13.5518819 6.79245283,14.1041667 L6.79245283,28.3333333 C6.79245283,28.8856181 6.34473758,29.3333333 5.79245283,29.3333333 L3.39622642,29.3333333 C1.52054236,29.3333333 2.29705048e-16,27.812791 0,25.9371069 L0,16.5003931 C-2.29705048e-16,14.624709 1.52054236,13.1041667 3.39622642,13.1041667 Z" id="Rectangle-Copy-20" fill="#3F53D9"></path>
                        <rect id="Rectangle" fill="#FFFFFF" x="16.9811321" y="37.875" width="11.8867925" height="5.125" rx="2.5625"></rect>
                    </g>
                    <path d="M12.219327,20.9643462 C14.1619351,14.169858 27.7378685,13.2130668 31.5264458,17.927256 C33.9672157,20.9643462 33.3681551,25.0702717 29.7865727,26.9566813 C26.2049903,28.843091 22.4016627,28.4496375 18.322788,28.4496375 C18.2494601,28.4496375 17.0775883,29.2997583 14.8071724,31 C14.8071724,30.3867571 14.8071724,29.3943706 14.8071724,28.0228404 C14.8071724,27.7954092 11.0707721,24.9815449 12.219327,20.9643462 Z" id="Path-5" fill="#FFFFFF"></path>
                </g>
                <g id="Group-51" transform="translate(21.000000, 24.000000)" fill="#3F53D9">
                    <circle id="Oval-Copy-7" cx="1.13598633" cy="1.13598633" r="1.13598633"></circle>
                    <circle id="Oval-Copy-15" cx="5.13598633" cy="1.13598633" r="1.13598633"></circle>
                    <circle id="Oval-Copy-16" cx="9.13598633" cy="1.13598633" r="1.13598633"></circle>
                </g>
            </g>
        </g>
    </g>
</svg>