<?xml version="1.0" encoding="UTF-8"?>
<svg width="48px" height="40px" viewBox="0 0 48 40" version="1.1" xmlns="http://www.w3.org/2000/svg" xmlns:xlink="http://www.w3.org/1999/xlink">
    <!-- Generator: Sketch 63.1 (92452) - https://sketch.com -->
    <title>Group 53</title>
    <desc>Created with Sketch.</desc>
    <g id="Page-2" stroke="none" stroke-width="1" fill="none" fill-rule="evenodd">
        <g id="Artboard" transform="translate(-49.000000, -278.000000)">
            <g id="Group-53" transform="translate(48.000000, 272.000000)">
                <rect id="Rectangle" x="0" y="0" width="50" height="50"></rect>
                <g id="Group-48" transform="translate(2.563994, 7.160381)" stroke="#050038" stroke-linecap="round" stroke-linejoin="round" stroke-width="2">
                    <g id="Group-47">
                        <path d="M17.6747752,10.9751167 L25.8112498,17.9680366 C26.893281,18.6590332 27.9224965,18.5501662 28.8988962,17.6414354 C29.875296,16.7327047 29.875296,15.4970893 28.8988962,13.9345893 C23.1298691,8.13201771 19.5544743,4.53428008 18.1727118,3.14137643 C16.1000681,1.05202096 10.1156931,-2.39597708 3.60524388,4.10561336 C-2.90520536,10.6072038 1.14667441,15.9517972 2.37595915,17.6414354 C3.1954823,18.7678609 4.54883113,20.1493517 6.43600562,21.7859077" id="Path-67" fill="#FFD02F"></path>
                        <path d="M21.9517527,6.18300241 C26.5547651,2.0610008 30.6001395,4.26325641e-14 34.0878758,4.26325641e-14 C36.4814158,4.26325641e-14 39.4532072,0.86009556 41.5048533,2.74977487 C43.6242301,4.70183786 46.047822,8.89186471 44.39499,13.4724311 C41.6275851,21.1418624 27.2553285,34.5788357 26.0367359,35.6288032 C24.3576595,37.0755341 22.8315134,38.6604194 21.044282,37.1207466 C19.8527944,36.094298 19.7463084,34.9224637 20.724824,33.6052436 L26.0367359,27.6550075" id="Path-45"></path>
                    </g>
                    <path d="M20.9450388,33.2528266 C19.1580108,34.6768989 17.6194773,34.8626085 16.3294382,33.8099555 C15.0393992,32.7573025 14.9216827,31.455382 15.9762888,29.9041938 L22.8315134,22.9170112" id="Path-63"></path>
                    <path d="M16.0991363,29.7156068 C15.0562449,30.6126899 13.3152474,31.4649848 11.6697395,30.0420112 C10.5727343,29.0933621 10.5727343,27.7850232 11.6697395,26.1169946 L18.4360056,19.8396186" id="Path-64"></path>
                    <path d="M12.1002081,25.68227 C10.7515753,26.9038605 8.4497147,26.9038605 7.32858375,25.68227 C6.20745279,24.4606795 6.38021949,23.0316352 7.11422828,21.7859077 C7.60356747,20.9554227 11.1237498,17.3518257 17.6747752,10.9751167" id="Path-65"></path>
                </g>
            </g>
        </g>
    </g>
</svg>