<svg width="80" height="80" viewBox="0 0 80 80" fill="none" xmlns="http://www.w3.org/2000/svg">
<path fill-rule="evenodd" clip-rule="evenodd" d="M25.0807 26.5312C22.6756 26.5312 20.51 27.713 18.938 29.5893C17.3074 31.5354 16.3096 34.2266 16.3096 37.1935C16.3096 41.1366 18.0718 44.6005 20.7424 46.4584L20.743 48.9158C16.7573 48.8031 13.1474 50.419 10.6073 53.0684C8.49989 55.2664 7.12891 58.1761 6.89075 61.4008L43.2453 61.1027C42.9421 57.945 41.5509 55.1051 39.4511 52.9623C36.9169 50.3759 33.3505 48.8046 29.4183 48.9158L29.419 46.4584C32.0896 44.6005 33.8518 41.1366 33.8518 37.1935C33.8518 34.2266 32.8539 31.5354 31.2234 29.5893C29.6513 27.713 27.4857 26.5312 25.0807 26.5312Z" fill="white" stroke="#030334" stroke-width="3"/>
<path fill-rule="evenodd" clip-rule="evenodd" d="M56.6768 18.2461C54.6715 18.2461 52.8678 19.2344 51.5577 20.7981C50.1891 22.4315 49.3533 24.6908 49.3533 27.1806C49.3533 30.5174 50.8541 33.448 53.1299 34.9954L53.1296 37.3196C49.7179 37.1787 46.6228 38.5447 44.4546 40.8062C42.7178 42.6177 41.5759 45.0039 41.3425 47.651L71.9824 47.3661C71.6892 44.7836 70.5294 42.464 68.8008 40.705C66.6379 38.5041 63.5845 37.1808 60.224 37.3196L60.2237 34.9954C62.4995 33.448 64.0003 30.5174 64.0003 27.1806C64.0003 24.6908 63.1645 22.4315 61.7959 20.7981C60.4858 19.2344 58.6821 18.2461 56.6768 18.2461Z" fill="white" stroke="#030334" stroke-width="3"/>
<path d="M25.4181 18.3794C33.3836 6.47279 48.77 5.14312 55.6456 10.5167" stroke="#FF6575" stroke-width="3" stroke-linecap="round" stroke-linejoin="round"/>
<path d="M26.7977 70.5128C40.5318 78.4699 58.7944 70.5128 63.0687 58.7812" stroke="#3F53D9" stroke-width="3" stroke-linecap="round" stroke-linejoin="round"/>
</svg>
